<svg xmlns="http://www.w3.org/2000/svg" viewBox="0 0 512 512">
  <defs>
    <linearGradient id="bg" x1="0%" y1="0%" x2="100%" y2="100%">
      <stop offset="0%" style="stop-color:#3B82F6"/>
      <stop offset="100%" style="stop-color:#6366F1"/>
    </linearGradient>
  </defs>
  <rect width="512" height="512" rx="96" fill="url(#bg)"/>
  <g fill="white">
    <!-- Airplane -->
    <path d="M380 180c10-10 10-26 0-36s-26-10-36 0l-60 60-100-50-20 20 80 70-50 50-30-10-15 15 45 25 25 45 15-15-10-30 50-50 70 80 20-20-50-100z" transform="translate(20, 20)"/>
    <!-- Location pin -->
    <circle cx="160" cy="340" r="50" fill="none" stroke="white" stroke-width="20"/>
    <circle cx="160" cy="340" r="15"/>
    <path d="M160 390v60" stroke="white" stroke-width="16" stroke-linecap="round"/>
  </g>
</svg>
